<svg width="24" height="28" viewBox="0 0 24 28" fill="none" xmlns="http://www.w3.org/2000/svg">
<path d="M1.293 14.5222C1.10553 14.3079 1.00021 14.0173 1.00021 13.7142C1.00021 13.4112 1.10553 13.1205 1.293 12.9062L7.293 6.04909C7.4816 5.8409 7.7342 5.72571 7.9964 5.72831C8.2586 5.73092 8.50941 5.85111 8.69482 6.06301C8.88023 6.2749 8.9854 6.56154 8.98767 6.8612C8.98995 7.16085 8.88916 7.44954 8.707 7.66509L4.414 12.5714H22C22.2652 12.5714 22.5196 12.6918 22.7071 12.9061C22.8946 13.1204 23 13.4111 23 13.7142C23 14.0173 22.8946 14.308 22.7071 14.5224C22.5196 14.7367 22.2652 14.8571 22 14.8571H4.414L8.707 19.7634C8.88916 19.9789 8.98995 20.2676 8.98767 20.5673C8.9854 20.8669 8.88023 21.1536 8.69482 21.3655C8.50941 21.5773 8.2586 21.6975 7.9964 21.7001C7.7342 21.7027 7.4816 21.5876 7.293 21.3794L1.293 14.5222Z" fill="white"/>
</svg>
