<svg width="34" height="34" viewBox="0 0 34 34" fill="none" xmlns="http://www.w3.org/2000/svg">
<path d="M9.92895 22.6569L15.5858 17L9.92895 11.3431C9.74141 11.1556 9.63605 10.9013 9.63605 10.636C9.63605 10.3708 9.74141 10.1165 9.92895 9.92893C10.1165 9.7414 10.3708 9.63604 10.6361 9.63604C10.9013 9.63604 11.1556 9.7414 11.3432 9.92893L17 15.5858L22.6569 9.92893C22.8444 9.7414 23.0988 9.63604 23.364 9.63604C23.6292 9.63604 23.8835 9.7414 24.0711 9.92893C24.2586 10.1165 24.364 10.3708 24.364 10.636C24.364 10.9013 24.2586 11.1556 24.0711 11.3431L18.4142 17L24.0711 22.6569C24.2586 22.8444 24.364 23.0987 24.364 23.364C24.364 23.6292 24.2586 23.8835 24.0711 24.0711C23.8835 24.2586 23.6292 24.364 23.364 24.364C23.0988 24.364 22.8444 24.2586 22.6569 24.0711L17 18.4142L11.3432 24.0711C11.1556 24.2586 10.9013 24.364 10.6361 24.364C10.3708 24.364 10.1165 24.2586 9.92895 24.0711C9.74141 23.8835 9.63605 23.6292 9.63605 23.364C9.63605 23.0987 9.74141 22.8444 9.92895 22.6569V22.6569Z" fill="white"/>
</svg>
